# xmcd CD database file
#
# Track frame offsets:
#	150
#	18187
#	37176
#	62910
#	87923
#	104091
#	127952
#	144035
#	161533
#	182162
#	198073
#	221554
#
# Disc length: 3252 seconds
#
# Revision: 0
# Processed by: cddbd v1.5.1PL0 Copyright (c) Steve Scherf et al.
# Submitted via: CDex 1.51
#
DISCID=a20cb20c
DTITLE=Stew Moss - Going Back to Texas
DYEAR=1900
DGENRE=Blues
TTITLE0=Spider Women
TTITLE1=Until That Day
TTITLE2=Brand New Walking Blues
TTITLE3=St. James Infirmary
TTITLE4=Midnight Lucy
TTITLE5=Going Back to Texas
TTITLE6=Chicago on Fire
TTITLE7=Green Money
TTITLE8=Too Good Lookin'
TTITLE9=Ugly Man
TTITLE10=Winds of Change
TTITLE11=Data - MP3 files
EXTD=
EXTT0=
EXTT1=
EXTT2=
EXTT3=
EXTT4=
EXTT5=
EXTT6=
EXTT7=
EXTT8=
EXTT9=
EXTT10=
EXTT11=
PLAYORDER=
